Simulation
nRows=16
nColumns=15
endheader
time  TH_x TH_y TH_z SC_y  SC_z  SC_x  AC_y  AC_z  AC_x  GH_y  GH_z  GH_yy  EL_x  PS_y
1.95  0.000000  0.000000  0.000000  -33.11290164644499  10.90657113981376  15.409927581252223  63.75413973438786  14.571246076147375  8.069117558354304  46.6433902675244  60.82014778528721  -40.22040022252787  22.326588169628156  0.000000
1.989  0.000000  0.000000  0.000000  -32.81951796690233  10.49222674832376  14.619047529669588  63.714903652996284  14.415813360553836  7.564718270392069  46.823104415565325  59.72095097889821  -39.51972511130504  22.525618965086863  0.000000
2.028  0.000000  0.000000  0.000000  -32.45995122980885  10.027608305393992  13.743298889140874  63.62386164495995  14.277939633963669  7.032368462754599  46.96425682973401  58.47447334384116  -38.70853251007231  22.73028731823945  0.000000
2.067  0.000000  0.000000  0.000000  -32.040677687277004  9.513809563905252  12.821111175024381  63.48972066827747  14.131356440590494  6.463640067861283  47.055337455973294  57.09475458786999  -37.788320294072875  22.93338627476037  0.000000
2.106  0.000000  0.000000  0.000000  -31.57092115099452  8.952335234759758  11.870566481042584  63.324623311371774  13.963161724139189  5.862037594813372  47.086618562715806  55.593834866000826  -36.76530501530397  23.128355691665664  0.000000
2.145  0.000000  0.000000  0.000000  -31.067505367154823  8.350785022091632  10.90148725213927  63.13925442143716  13.771404979126327  5.243040832073908  47.052908994038006  53.98261272797091  -35.6536420026089  23.308085148798796  0.000000
2.184  0.000000  0.000000  0.000000  -30.547216833048214  7.718508010033095  9.934389531708009  62.940015164293804  13.55268074750503  4.618759665090034  46.95322800705297  52.27407609330713  -34.468690974048144  23.46531106499962  0.000000
2.223  0.000000  0.000000  0.000000  -30.021629874407406  7.067063679194279  8.990469470187966  62.73145925424067  13.303199517295411  3.997645676617544  46.78680247879512  50.48534570318013  -33.22159964862525  23.594915111416924  0.000000
2.262  0.000000  0.000000  0.000000  -29.511287526504457  6.4111738549405555  8.099706893504397  62.517536629151714  13.00281909248781  3.3817422137422604  46.55529099179102  48.63777720736093  -31.92115952966897  23.698647482925466  0.000000
2.301  0.000000  0.000000  0.000000  -29.034852056883935  5.75571644480169  7.287925993619668  62.29942632528927  12.632023227227041  2.7623203456997336  46.24922188750581  46.74956567586634  -30.561886889809138  23.78491529642656  0.000000
2.34  0.000000  0.000000  0.000000  -28.59518101705249  5.10160170389983  6.5537015894311015  62.067444399579166  12.19874723830156  2.1354258130949444  45.847670409474105  44.82874970490433  -29.128198066304517  23.870126026247824  0.000000
2.379  0.000000  0.000000  0.000000  -28.195580610352085  4.456731068372119  5.87151065368565  61.81064884336628  11.72930646521408  1.5158133196177208  45.34705401855006  42.884294184657854  -27.60684933157749  23.96770399740053  0.000000
2.418  0.000000  0.000000  0.000000  -27.831460207860484  3.8323196524992422  5.2288403906070515  61.509656690939096  11.23798429104603  0.9065417699454659  44.76323984073686  40.92507712405112  -26.002320444740015  24.09974554796232  0.000000
2.457  0.000000  0.000000  0.000000  -27.48767310298636  3.2297408864665105  4.610762331745047  61.145616777126065  10.746425792377106  0.3013993410967712  44.106033424712685  38.954415677008654  -24.31089659072326  24.28711236429236  0.000000
2.496  0.000000  0.000000  0.000000  -27.142585977164185  2.6464624728609425  3.9934582217848282  60.69766206618527  10.277364937855767  -0.3073298294155977  43.38719937941881  36.97962964526828  -22.542978851372308  24.547928582111993  0.000000
2.535  0.000000  0.000000  0.000000  -26.77458758424014  2.0752632596232274  3.3450575276857406  60.14660426567375  9.863869173421868  -0.9222321798862626  42.61803561754193  35.01365057951776  -20.707468650004913  24.89189736806973  0.000000
